<svg width="40" height="40" viewBox="0 0 40 40" fill="none" xmlns="http://www.w3.org/2000/svg">
<rect x="4" y="4" width="32" height="32" fill="#00B400"/>
<path d="M12.993 33.21C16.164 33.21 18.39 31.572 18.39 28.653V28.611C18.39 26.049 16.71 24.978 13.728 24.201C11.187 23.55 10.557 23.235 10.557 22.269V22.227C10.557 21.513 11.208 20.946 12.447 20.946C13.686 20.946 14.967 21.492 16.269 22.395L17.949 19.959C16.458 18.762 14.631 18.09 12.489 18.09C9.486 18.09 7.344 19.854 7.344 22.521V22.563C7.344 25.482 9.255 26.301 12.216 27.057C14.673 27.687 15.177 28.107 15.177 28.926V28.968C15.177 29.829 14.379 30.354 13.056 30.354C11.376 30.354 9.99 29.661 8.667 28.569L6.756 30.858C8.52 32.433 10.767 33.21 12.993 33.21Z" fill="white"/>
<path d="M25.44 33.24C27.38 33.24 28.82 32.48 29.82 31.24L28.08 29.7C27.24 30.48 26.5 30.8 25.48 30.8C24.12 30.8 23.16 30.08 22.86 28.7H30.32C30.34 28.42 30.36 28.14 30.36 27.9C30.36 24.86 28.72 22.08 25.14 22.08C22.02 22.08 19.84 24.6 19.84 27.66V27.7C19.84 30.98 22.22 33.24 25.44 33.24ZM22.82 26.8C23.06 25.42 23.88 24.52 25.14 24.52C26.42 24.52 27.22 25.44 27.4 26.8H22.82Z" fill="white"/>
<path d="M19.5 14L21.5 11.5L25 15L33 4H36V8L25 20L19.5 14Z" fill="white"/>
</svg>
